<?xml version="1.0" encoding="utf-8" ?>
<svg xmlns="http://www.w3.org/2000/svg" xmlns:ev="http://www.w3.org/2001/xml-events" xmlns:xlink="http://www.w3.org/1999/xlink" baseProfile="full" height="792" version="1.1" viewBox="0 0 612 792" width="612">
  <defs/>
  <g>
    <text transform="matrix(1 0 -0 1 0 792)" x="0" y="0">IntroductiontoDataScience,Release0.1</text>
    <path d="M0 0H468" fill="none" stroke="#000000" stroke-linecap="butt" stroke-linejoin="miter" stroke-width=".398" transform="matrix(1,0,0,-1,72,47.29303)"/>
    <text fill="#20435c" transform="matrix(1 0 -0 1 0 792)" x="0" y="0">12.3.4</text>
    <text fill="#20435c" transform="matrix(1 0 -0 1 0 792)" x="0" y="0">WordCountwithHadoop</text>
    <text transform="matrix(1 0 -0 1 0 792)" x="0" y="0">SinceitisnotintuitivehowHadoop/YARNorchestratetheexecutionofaMapReduceapplication,wenowdemonstratethisindetailstepbystepusingthewordcountexample.</text>
    <g>
      <g transform="matrix(.3670608,0,0,.367056,72,127.40654)"/>
    </g>
    <text transform="matrix(1 0 -0 1 0 792)" x="0" y="0">1.</text>
    <text transform="matrix(1 0 -0 1 0 792)" x="0" y="0">Theuserbuildsthejar-ArchiveoftheMapReduceapplicationandsubmitsthisapplicationtotheResourceManager.</text>
    <text transform="matrix(1 0 -0 1 0 792)" x="0" y="0">2.</text>
    <text transform="matrix(1 0 -0 1 0 792)" x="0" y="0">TheResourceManagerlaunchestheMRAppMasterapplicationmastertoorchestratetheexecutionoftheWord-Count.jar.</text>
    <g>
      <g transform="matrix(.33597598,0,0,.33600004,72,428.65003)"/>
    </g>
    <text transform="matrix(1 0 -0 1 0 792)" x="0" y="0">3.</text>
    <text transform="matrix(1 0 -0 1 0 792)" x="0" y="0">TheMRAppMasterevaluatestheconﬁgurationoftheHadoopapplicationintheWordCount.jarandﬁndsonejobsthatconsistsofamap()andareduce()function.TheMRAppMasterrequeststherequiredresourcesforthemap()functionfromtheResourceManager.</text>
    <text transform="matrix(1 0 -0 1 0 792)" x="0" y="0">4.</text>
    <text transform="matrix(1 0 -0 1 0 792)" x="0" y="0">TheResourceManagerprovidestherequiredcomputeresources.TheresourcesareallocatedontheDataNodes,</text>
    <path d="M0 0H468" fill="none" stroke="#000000" stroke-linecap="butt" stroke-linejoin="miter" stroke-width=".398" transform="matrix(1,0,0,-1,72,737.73306)"/>
    <text transform="matrix(1 0 -0 1 0 792)" x="0" y="0">182Chapter12.BigDataProcessing</text>
  </g>
</svg>
