<?xml version="1.0" encoding="utf-8" ?>
<svg xmlns="http://www.w3.org/2000/svg" xmlns:ev="http://www.w3.org/2001/xml-events" xmlns:xlink="http://www.w3.org/1999/xlink" baseProfile="full" height="792" version="1.1" viewBox="0 0 612 792" width="612">
  <defs/>
  <g>
    <text transform="matrix(1 0 -0 1 0 792)" x="0" y="0">IntroductiontoDataScience,Release0.1</text>
    <path d="M0 0H468" fill="none" stroke="#000000" stroke-linecap="butt" stroke-linejoin="miter" stroke-width=".398" transform="matrix(1,0,0,-1,72,47.29303)"/>
    <path d="M0 0H473.978V333.581H0Z" fill="#ffffff" transform="matrix(1,0,0,-1,69.011,409.965)"/>
    <g>
      <g transform="matrix(.65001,0,0,.65001007,72,79.37097)"/>
    </g>
    <path d="M0 0V333.581" fill="none" stroke="#e0e0e0" stroke-linecap="butt" stroke-linejoin="miter" stroke-width=".398" transform="matrix(1,0,0,-1,68.812,409.96504)"/>
    <path d="M0 0V333.581" fill="none" stroke="#e0e0e0" stroke-linecap="butt" stroke-linejoin="miter" stroke-width=".398" transform="matrix(1,0,0,-1,543.188,409.96504)"/>
    <path d="M0 0H474.775" fill="none" stroke="#e0e0e0" stroke-linecap="butt" stroke-linejoin="miter" stroke-width=".398" transform="matrix(1,0,0,-1,68.613,76.18402)"/>
    <path d="M0 0H474.775" fill="none" stroke="#e0e0e0" stroke-linecap="butt" stroke-linejoin="miter" stroke-width=".398" transform="matrix(1,0,0,-1,68.613,410.164)"/>
    <text transform="matrix(1 0 -0 1 0 792)" x="0" y="0">Aswecansee,thedecisionsurfacesalllookdifferent.Identityhaslineardecisionboundary,LogisticandtanhbothhaveasmallcurveinthedecisionboundariesandtheshapeofRelUcanonlybedescribedasirregular.RelUalsoshowsusthebigriskwhenusingneuralnetworks:overﬁtting.Threefullyconnectedlayerswith100neuronsoneachlayeralreadyhave</text>
    <text transform="matrix(1 0 -0 1 0 792)" x="0" y="0">2</text>
    <text transform="matrix(1 0 -0 1 0 792)" x="0" y="0">*</text>
    <text transform="matrix(1 0 -0 1 0 792)" x="0" y="0">(100</text>
    <text transform="matrix(1 0 -0 1 0 792)" x="0" y="0">*</text>
    <text transform="matrix(1 0 -0 1 0 792)" x="0" y="0">100)=20000</text>
    <text transform="matrix(1 0 -0 1 0 792)" x="0" y="0">weightsthatmustbeestimated,withoutevenaccountingfortheweightsbetweentheinputlayerandtheﬁrsthiddenlayer,andthelasthiddenlayerandtheoutputlayer.ThishugenumberofparametersthatmustbeestimatedallowedtheMLPwiththeRelUfunctiontocarveoutasmallyellowareaforasingleinstance.Thisisageneralproblemofneuralnetworks:iftheyaretoosmall,theydonotallowforgoodperformance,iftheyaretoolarge,therewillbeoverﬁtting.Therefore,anykindofneuralnetworkshouldbeusedwithcareandtheparametersshouldbecarefullyselected,e.g.,withthehelpofavalidationset,topreventoverﬁtting.</text>
    <text transform="matrix(1 0 -0 1 0 792)" x="0" y="0">Note:Thisisnota“deep”diveintoneuralnetworks,weonlyscratchthesurfaceofavastamountofoptionsyouhavewithneuralnetworks.Therearedifferentlayerstructures,e.g.,convolution,pooling,ordrop-outlayers.Networkscanalsohave“backwardedges”,leadingto</text>
    <text transform="matrix(1 0 -0 1 0 792)" x="0" y="0">recurrent</text>
    <text transform="matrix(1 0 -0 1 0 792)" x="0" y="0">neuralnetworks,orevenhavespecialkindsofneuronslikeLong-Short-Term-Memory(LSTM)networks.Ingeneral,therearedifferent</text>
    <text transform="matrix(1 0 -0 1 0 792)" x="0" y="0">networkarchitectures</text>
    <text transform="matrix(1 0 -0 1 0 792)" x="0" y="0">,wheredifferentarchitecturesarewellsuitedfordifferentpurposes,e.g.,convolu-tionalneuralnetworksforobjectrecognition,LSTMnetworksfortextmining,orgenerativeadversarialnetworks(GANs)toimprovetrainingorcreateartiﬁcialdata.Thus,beforeusingdeeplearning,thereisavastamountofoptionsthatyoumustbeawareof,soyoucandeﬁneappropriatenetworkstructures.Pleasebeawarethatpowerfulneuralnetworksusuallyrequirelargeamountsofdatatoachieveagoodperformance.Thus,ifyouonlyhavealimitedamountofdataavailable,otheroptionsareoftenbetterthanneuralnetworks.</text>
    <path d="M0 0H468" fill="none" stroke="#000000" stroke-linecap="butt" stroke-linejoin="miter" stroke-width=".398" transform="matrix(1,0,0,-1,72,737.73306)"/>
    <text transform="matrix(1 0 -0 1 0 792)" x="0" y="0">116Chapter7.Classiﬁcation</text>
  </g>
</svg>
