<?xml version="1.0" encoding="utf-8" ?>
<svg xmlns="http://www.w3.org/2000/svg" xmlns:ev="http://www.w3.org/2001/xml-events" xmlns:xlink="http://www.w3.org/1999/xlink" baseProfile="full" height="792" version="1.1" viewBox="0 0 612 792" width="612">
  <defs/>
  <text transform="matrix(1 0 -0 1 0 792)" x="0" y="0">IntroductiontoDataScience,Release0.1</text>
  <path d="M0 0H468" fill="none" stroke="#000000" stroke-linecap="butt" stroke-linejoin="miter" stroke-width=".398" transform="matrix(1,0,0,-1,72,47.29303)"/>
  <text transform="matrix(1 0 -0 1 0 792)" x="0" y="0">correlationsovertimewithaperiodicityof12timesteps.Thisistheresidualseasonaleffect,thatwecanobservewithintheautocorrelations.Thepartialautocorrelationsshowthatthereisastrongdirectinﬂuenceof</text>
  <text transform="matrix(1 0 -0 1 0 792)" x="0" y="0">𝑥</text>
  <text transform="matrix(1 0 -0 1 0 792)" x="0" y="0">𝑡</text>
  <text transform="matrix(1 0 -0 1 0 792)" x="0" y="0">+1</text>
  <text transform="matrix(1 0 -0 1 0 792)" x="0" y="0">andalsothatthetimestepsbetween</text>
  <text transform="matrix(1 0 -0 1 0 792)" x="0" y="0">𝑡</text>
  <text transform="matrix(1 0 -0 1 0 792)" x="0" y="0">+10</text>
  <text transform="matrix(1 0 -0 1 0 792)" x="0" y="0">and</text>
  <text transform="matrix(1 0 -0 1 0 792)" x="0" y="0">𝑡</text>
  <text transform="matrix(1 0 -0 1 0 792)" x="0" y="0">+13</text>
  <text transform="matrix(1 0 -0 1 0 792)" x="0" y="0">haveaweakdirectinﬂuenceon</text>
  <text transform="matrix(1 0 -0 1 0 792)" x="0" y="0">𝑥</text>
  <text transform="matrix(1 0 -0 1 0 792)" x="0" y="0">𝑡</text>
  <text transform="matrix(1 0 -0 1 0 792)" x="0" y="0">thatisnotexplainedthroughthecarryover.Thisis,again,theresidualseasonaleffect,thatwehavenotcorrected.Thesecondrowoftheplotshowstheautocorrelationandpartialautocorrelationforthetimeserieswhereweuseddifferencingfortheadjustments.Aswealreadysawabove,thereisnocorrelationbetweenthetimesteps,bothintheautocorrelationandthepartialautocorrelation.Thisobservationisthesameaswehadwiththescatterplots.</text>
  <text fill="#20435c" transform="matrix(1 0 -0 1 0 792)" x="0" y="0">9.4.2</text>
  <text fill="#20435c" transform="matrix(1 0 -0 1 0 792)" x="0" y="0">AR,MAandARMA</text>
  <text transform="matrix(1 0 -0 1 0 792)" x="0" y="0">Whatwearestillmissingisawaytomodeltheautocorrelation.Ancommonapproachistouse</text>
  <text transform="matrix(1 0 -0 1 0 792)" x="0" y="0">AutoRegressive</text>
  <text transform="matrix(1 0 -0 1 0 792)" x="0" y="0">(AR)or</text>
  <text transform="matrix(1 0 -0 1 0 792)" x="0" y="0">MovingAverage</text>
  <text transform="matrix(1 0 -0 1 0 792)" x="0" y="0">(MA)models.Ifbothareusedtogether,thisisanARMAmodel.TheARmodelsmodelalinearrelationshipbetweenthetimesteps.Theymodelthe</text>
  <text transform="matrix(1 0 -0 1 0 792)" x="0" y="0">direct</text>
  <text transform="matrix(1 0 -0 1 0 792)" x="0" y="0">inﬂuenceofthepastpoints</text>
  <text transform="matrix(1 0 -0 1 0 792)" x="0" y="0">𝑝</text>
  <text transform="matrix(1 0 -0 1 0 792)" x="0" y="0">intimeonthecurrentpointintimeas</text>
  <text transform="matrix(1 0 -0 1 0 792)" x="0" y="0">𝑐</text>
  <text transform="matrix(1 0 -0 1 0 792)" x="0" y="0">+</text>
  <text transform="matrix(1 0 -0 1 0 792)" x="0" y="0">𝜖</text>
  <text transform="matrix(1 0 -0 1 0 792)" x="0" y="0">𝑡</text>
  <text transform="matrix(1 0 -0 1 0 792)" x="0" y="0">+</text>
  <text transform="matrix(1 0 -0 1 0 792)" x="0" y="0">𝑝</text>
  <text transform="matrix(1 0 -0 1 0 792)" x="0" y="0">∑︁</text>
  <text transform="matrix(1 0 -0 1 0 792)" x="0" y="0">𝑖</text>
  <text transform="matrix(1 0 -0 1 0 792)" x="0" y="0">=1</text>
  <text transform="matrix(1 0 -0 1 0 792)" x="0" y="0">𝑎</text>
  <text transform="matrix(1 0 -0 1 0 792)" x="0" y="0">𝑖</text>
  <text transform="matrix(1 0 -0 1 0 792)" x="0" y="0">𝑥</text>
  <text transform="matrix(1 0 -0 1 0 792)" x="0" y="0">𝑡</text>
  <text transform="matrix(1 0 -0 1 0 792)" x="0" y="0">−</text>
  <text transform="matrix(1 0 -0 1 0 792)" x="0" y="0">𝑖</text>
  <text transform="matrix(1 0 -0 1 0 792)" x="0" y="0">where</text>
  <text transform="matrix(1 0 -0 1 0 792)" x="0" y="0">𝑐</text>
  <text transform="matrix(1 0 -0 1 0 792)" x="0" y="0">∈</text>
  <text transform="matrix(1 0 -0 1 0 792)" x="0" y="0">R</text>
  <text transform="matrix(1 0 -0 1 0 792)" x="0" y="0">isaconstantchangeovertime,</text>
  <text transform="matrix(1 0 -0 1 0 792)" x="0" y="0">𝜖</text>
  <text transform="matrix(1 0 -0 1 0 792)" x="0" y="0">𝑡</text>
  <text transform="matrix(1 0 -0 1 0 792)" x="0" y="0">is</text>
  <text transform="matrix(1 0 -0 1 0 792)" x="0" y="0">whitenoise</text>
  <text transform="matrix(1 0 -0 1 0 792)" x="0" y="0">,and</text>
  <text transform="matrix(1 0 -0 1 0 792)" x="0" y="0">𝑎</text>
  <text transform="matrix(1 0 -0 1 0 792)" x="0" y="0">𝑖</text>
  <text transform="matrix(1 0 -0 1 0 792)" x="0" y="0">∈</text>
  <text transform="matrix(1 0 -0 1 0 792)" x="0" y="0">R</text>
  <text transform="matrix(1 0 -0 1 0 792)" x="0" y="0">,𝑖</text>
  <text transform="matrix(1 0 -0 1 0 792)" x="0" y="0">=1</text>
  <text transform="matrix(1 0 -0 1 0 792)" x="0" y="0">,...,𝑝</text>
  <text transform="matrix(1 0 -0 1 0 792)" x="0" y="0">arecoefﬁcientsthatdeterminetheinﬂuencepastvaluesofthetimeseries.Thus,theARmodelcombinesaﬁxedchange</text>
  <text transform="matrix(1 0 -0 1 0 792)" x="0" y="0">𝑐</text>
  <text transform="matrix(1 0 -0 1 0 792)" x="0" y="0">,witharandomchange</text>
  <text transform="matrix(1 0 -0 1 0 792)" x="0" y="0">𝜖</text>
  <text transform="matrix(1 0 -0 1 0 792)" x="0" y="0">𝑡</text>
  <text transform="matrix(1 0 -0 1 0 792)" x="0" y="0">andthelast</text>
  <text transform="matrix(1 0 -0 1 0 792)" x="0" y="0">𝑝</text>
  <text transform="matrix(1 0 -0 1 0 792)" x="0" y="0">valuesofthetimeseries.</text>
  <text transform="matrix(1 0 -0 1 0 792)" x="0" y="0">Note:Whitenoisearerandomvariableswithanexpectedvalueof0.Thismeansthatintheexpectation,thewhitenoisedoesnotinﬂuencethemeanvalueoftimeseries.Usually,thewhitenoiseismodeledbynormaldistributionswithameanvalueof0andasmallstandarddeviation.TheMAmodelsare</text>
  <text transform="matrix(1 0 -0 1 0 792)" x="0" y="0">random</text>
  <text transform="matrix(1 0 -0 1 0 792)" x="0" y="0">,i.e.,theyareusedtomodelhowrandomeffectsinﬂuencethevaluesofthetimeseriesandaredeﬁnedas</text>
  <text transform="matrix(1 0 -0 1 0 792)" x="0" y="0">𝑐</text>
  <text transform="matrix(1 0 -0 1 0 792)" x="0" y="0">+</text>
  <text transform="matrix(1 0 -0 1 0 792)" x="0" y="0">𝜖</text>
  <text transform="matrix(1 0 -0 1 0 792)" x="0" y="0">𝑡</text>
  <text transform="matrix(1 0 -0 1 0 792)" x="0" y="0">+</text>
  <text transform="matrix(1 0 -0 1 0 792)" x="0" y="0">𝑞</text>
  <text transform="matrix(1 0 -0 1 0 792)" x="0" y="0">∑︁</text>
  <text transform="matrix(1 0 -0 1 0 792)" x="0" y="0">𝑗</text>
  <text transform="matrix(1 0 -0 1 0 792)" x="0" y="0">=1</text>
  <text transform="matrix(1 0 -0 1 0 792)" x="0" y="0">𝑏</text>
  <text transform="matrix(1 0 -0 1 0 792)" x="0" y="0">𝑗</text>
  <text transform="matrix(1 0 -0 1 0 792)" x="0" y="0">𝜖</text>
  <text transform="matrix(1 0 -0 1 0 792)" x="0" y="0">𝑡</text>
  <text transform="matrix(1 0 -0 1 0 792)" x="0" y="0">−</text>
  <text transform="matrix(1 0 -0 1 0 792)" x="0" y="0">𝑗</text>
  <text transform="matrix(1 0 -0 1 0 792)" x="0" y="0">𝑐</text>
  <text transform="matrix(1 0 -0 1 0 792)" x="0" y="0">and</text>
  <text transform="matrix(1 0 -0 1 0 792)" x="0" y="0">𝜖</text>
  <text transform="matrix(1 0 -0 1 0 792)" x="0" y="0">𝑡</text>
  <text transform="matrix(1 0 -0 1 0 792)" x="0" y="0">arethesameasfortheARmodel.ThesecondpartoftheMAmodel(</text>
  <text transform="matrix(1 0 -0 1 0 792)" x="0" y="0">∑︀</text>
  <text transform="matrix(1 0 -0 1 0 792)" x="0" y="0">𝑞𝑗</text>
  <text transform="matrix(1 0 -0 1 0 792)" x="0" y="0">=1</text>
  <text transform="matrix(1 0 -0 1 0 792)" x="0" y="0">𝑏</text>
  <text transform="matrix(1 0 -0 1 0 792)" x="0" y="0">𝑗</text>
  <text transform="matrix(1 0 -0 1 0 792)" x="0" y="0">𝜖</text>
  <text transform="matrix(1 0 -0 1 0 792)" x="0" y="0">𝑡</text>
  <text transform="matrix(1 0 -0 1 0 792)" x="0" y="0">−</text>
  <text transform="matrix(1 0 -0 1 0 792)" x="0" y="0">𝑗</text>
  <text transform="matrix(1 0 -0 1 0 792)" x="0" y="0">istheinﬂuenceofthepastnoiseonthenextvalue.Forexample,arandomincreaseinairpassengersinJanuarymaymeanthatthereisadecreaseofpassengersinFebruary.Thiswouldbemodeledwithanegativecoefﬁcientfor</text>
  <text transform="matrix(1 0 -0 1 0 792)" x="0" y="0">𝑏</text>
  <text transform="matrix(1 0 -0 1 0 792)" x="0" y="0">1</text>
  <text transform="matrix(1 0 -0 1 0 792)" x="0" y="0">intheMAmodel.WhenwecombinetheARwiththeMA,wegettheARMAmodelfortheautocorrelation,whichisdeﬁnedas</text>
  <text transform="matrix(1 0 -0 1 0 792)" x="0" y="0">𝑥</text>
  <text transform="matrix(1 0 -0 1 0 792)" x="0" y="0">𝑡</text>
  <text transform="matrix(1 0 -0 1 0 792)" x="0" y="0">=</text>
  <text transform="matrix(1 0 -0 1 0 792)" x="0" y="0">𝑐</text>
  <text transform="matrix(1 0 -0 1 0 792)" x="0" y="0">+</text>
  <text transform="matrix(1 0 -0 1 0 792)" x="0" y="0">𝜖</text>
  <text transform="matrix(1 0 -0 1 0 792)" x="0" y="0">𝑡</text>
  <text transform="matrix(1 0 -0 1 0 792)" x="0" y="0">+</text>
  <text transform="matrix(1 0 -0 1 0 792)" x="0" y="0">𝑝</text>
  <text transform="matrix(1 0 -0 1 0 792)" x="0" y="0">∑︁</text>
  <text transform="matrix(1 0 -0 1 0 792)" x="0" y="0">𝑖</text>
  <text transform="matrix(1 0 -0 1 0 792)" x="0" y="0">=1</text>
  <text transform="matrix(1 0 -0 1 0 792)" x="0" y="0">𝑎</text>
  <text transform="matrix(1 0 -0 1 0 792)" x="0" y="0">𝑖</text>
  <text transform="matrix(1 0 -0 1 0 792)" x="0" y="0">𝑥</text>
  <text transform="matrix(1 0 -0 1 0 792)" x="0" y="0">𝑡</text>
  <text transform="matrix(1 0 -0 1 0 792)" x="0" y="0">−</text>
  <text transform="matrix(1 0 -0 1 0 792)" x="0" y="0">𝑖</text>
  <text transform="matrix(1 0 -0 1 0 792)" x="0" y="0">+</text>
  <text transform="matrix(1 0 -0 1 0 792)" x="0" y="0">𝑞</text>
  <text transform="matrix(1 0 -0 1 0 792)" x="0" y="0">∑︁</text>
  <text transform="matrix(1 0 -0 1 0 792)" x="0" y="0">𝑗</text>
  <text transform="matrix(1 0 -0 1 0 792)" x="0" y="0">=1</text>
  <text transform="matrix(1 0 -0 1 0 792)" x="0" y="0">𝑏</text>
  <text transform="matrix(1 0 -0 1 0 792)" x="0" y="0">𝑗</text>
  <text transform="matrix(1 0 -0 1 0 792)" x="0" y="0">𝜖</text>
  <text transform="matrix(1 0 -0 1 0 792)" x="0" y="0">𝑡</text>
  <text transform="matrix(1 0 -0 1 0 792)" x="0" y="0">−</text>
  <text transform="matrix(1 0 -0 1 0 792)" x="0" y="0">𝑗</text>
  <text transform="matrix(1 0 -0 1 0 792)" x="0" y="0">.</text>
  <text transform="matrix(1 0 -0 1 0 792)" x="0" y="0">IntheARMAmodelwecombinetheinﬂuenceofpastvaluesthroughthecoefﬁcientsoftheARpartofthemodel,withtheinﬂuenceofrandomﬂuctuations.</text>
  <path d="M0 0H468" fill="none" stroke="#000000" stroke-linecap="butt" stroke-linejoin="miter" stroke-width=".398" transform="matrix(1,0,0,-1,72,737.73306)"/>
  <text transform="matrix(1 0 -0 1 0 792)" x="0" y="0">9.4.AutocorrelationwithARMA143</text>
</svg>
