<?xml version="1.0" encoding="utf-8" ?>
<svg xmlns="http://www.w3.org/2000/svg" xmlns:ev="http://www.w3.org/2001/xml-events" xmlns:xlink="http://www.w3.org/1999/xlink" baseProfile="full" height="792" version="1.1" viewBox="0 0 612 792" width="612">
  <defs/>
  <g>
    <text transform="matrix(1 0 -0 1 0 792)" x="0" y="0">IntroductiontoDataScience,Release0.1</text>
    <path d="M0 0H468" fill="none" stroke="#000000" stroke-linecap="butt" stroke-linejoin="miter" stroke-width=".398" transform="matrix(1,0,0,-1,72,47.29303)"/>
    <text transform="matrix(1 0 -0 1 0 792)" x="0" y="0">statisticproperties.Throughaboxplotofmultiplefeatures,wecanbettercomparethemstatistically,e.g.,iftheyhavesimilarranges,aswellasgetageneraloverviewofthedatainasingleﬁgure.</text>
    <text fill="#20435c" transform="matrix(1 0 -0 1 0 792)" x="0" y="0">3.3.3</text>
    <text fill="#20435c" transform="matrix(1 0 -0 1 0 792)" x="0" y="0">RelationshipsbetweenFeatures</text>
    <text transform="matrix(1 0 -0 1 0 792)" x="0" y="0">Sofar,wehaveanalyzedfeaturesontheirown.Withtheboxplot,wealreadylookedatmultiplefeaturesatonce,buteachboxwasstillonlyforinformationfromasinglefeature.Boxplotscan,toalimiteddegree,alsobeusedtogetinsightsintotherelationshipsoffeatures,incaseonefeatureiscategorical.Forexample,weuseaboxplottovisualizethepetallengthsofthedifferentspeciesofiris.</text>
    <path d="M0 0H473.978V215.236H0Z" fill="#ffffff" transform="matrix(1,0,0,-1,69.011,409.623)"/>
    <g>
      <g transform="matrix(.75002,0,0,.75003,72,197.37564)"/>
    </g>
    <path d="M0 0V215.236" fill="none" stroke="#e0e0e0" stroke-linecap="butt" stroke-linejoin="miter" stroke-width=".398" transform="matrix(1,0,0,-1,68.812,409.62303)"/>
    <path d="M0 0V215.236" fill="none" stroke="#e0e0e0" stroke-linecap="butt" stroke-linejoin="miter" stroke-width=".398" transform="matrix(1,0,0,-1,543.188,409.62303)"/>
    <path d="M0 0H474.775" fill="none" stroke="#e0e0e0" stroke-linecap="butt" stroke-linejoin="miter" stroke-width=".398" transform="matrix(1,0,0,-1,68.613,194.188)"/>
    <path d="M0 0H474.775" fill="none" stroke="#e0e0e0" stroke-linecap="butt" stroke-linejoin="miter" stroke-width=".398" transform="matrix(1,0,0,-1,68.613,409.822)"/>
    <text transform="matrix(1 0 -0 1 0 792)" x="0" y="0">Thisboxplottellsusalotabouttherelationshipbetweenthepetallengthandthespecies.</text>
    <text transform="matrix(1 0 -0 1 0 792)" x="0" y="0">•</text>
    <text transform="matrix(1 0 -0 1 0 792)" x="0" y="0">Allsetosashaveapetallengthlessthan2.5,allotheririsspecieshavepetallengthsofatleast2.5.</text>
    <text transform="matrix(1 0 -0 1 0 792)" x="0" y="0">•</text>
    <text transform="matrix(1 0 -0 1 0 792)" x="0" y="0">Virginicashaveapetallengthofatleast4.3,hence,alliriswithapetallengthbetween2.5and4.3mustbeversicolour.</text>
    <text transform="matrix(1 0 -0 1 0 792)" x="0" y="0">•</text>
    <text transform="matrix(1 0 -0 1 0 792)" x="0" y="0">Thepetallengthofversicolourarealllessthan5.1,hence,alliriswithapetallengthgreaterthan5.1mustbevirginica.</text>
    <text transform="matrix(1 0 -0 1 0 792)" x="0" y="0">•</text>
    <text transform="matrix(1 0 -0 1 0 792)" x="0" y="0">Intherange4.3to5.1theplanscanbeeitherversicolourorvirginica.Thedrawbackofboxplotsisthattheyrestrictthecomparisontoafewstatisticalmarkers.Moreover,therelationbetweenfeaturescanonlybeanalyzedifoneofthefeaturesiscategorical,ideallyalsowithnottoomanycategories.Wecangetamoredetailedviewabouttherelationshipbetweenfeatureswitha</text>
    <text transform="matrix(1 0 -0 1 0 792)" x="0" y="0">pair-wisescatterplot</text>
    <text transform="matrix(1 0 -0 1 0 792)" x="0" y="0">.</text>
    <path d="M0 0H468" fill="none" stroke="#000000" stroke-linecap="butt" stroke-linejoin="miter" stroke-width=".398" transform="matrix(1,0,0,-1,72,737.73306)"/>
    <text transform="matrix(1 0 -0 1 0 792)" x="0" y="0">40Chapter3.DataExploration</text>
  </g>
</svg>
