<?xml version="1.0" encoding="utf-8" ?>
<svg xmlns="http://www.w3.org/2000/svg" xmlns:ev="http://www.w3.org/2001/xml-events" xmlns:xlink="http://www.w3.org/1999/xlink" baseProfile="full" height="792" version="1.1" viewBox="0 0 612 792" width="612">
  <defs/>
  <text transform="matrix(1 0 -0 1 0 792)" x="0" y="0">IntroductiontoDataScience,Release0.1</text>
  <path d="M0 0H468" fill="none" stroke="#000000" stroke-linecap="butt" stroke-linejoin="miter" stroke-width=".398" transform="matrix(1,0,0,-1,72,47.29303)"/>
  <text transform="matrix(1 0 -0 1 0 792)" x="0" y="0">(continuedfrompreviouspage)</text>
  <path d="M0 0H473.978V290.909H0Z" fill="#ffffff" transform="matrix(1,0,0,-1,69.011,375.418)"/>
  <text transform="matrix(1 0 -0 1 0 792)" x="0" y="0">40.0000000.0000000.0000000.0000000.0000000.0000000.00000050.0000000.0000000.0000000.0000000.0000000.0000000.00000060.0000000.0000000.0000000.0000000.0000000.0000000.00000072.0794422.0794420.0000000.0000000.0000000.0000000.000000counterterrordemocratdollar...thankthousandtime\00.0000000.0000000.000000...0.0000000.0000000.00000010.0000000.0000000.000000...1.3862940.0000000.00000020.0000000.0000000.000000...0.0000000.0000000.00000030.0000000.0000002.079442...0.0000002.0794420.00000040.0000000.0000000.000000...0.0000000.0000000.00000052.0794420.0000000.000000...0.0000000.0000000.00000060.0000000.0000000.000000...1.3862940.0000000.00000070.0000002.0794420.000000...0.0000000.0000002.079442tomemmusavotewastwidenworkwould00.0000000.0000006.2383250.0000000.0000000.0000000.00000010.0000000.0000000.0000000.0000000.0000000.0000000.00000022.0794422.7725890.0000000.0000000.0000000.0000000.00000030.0000000.0000000.0000002.0794420.0000000.0000000.00000040.0000001.3862940.0000000.0000002.0794420.0000000.00000050.0000000.0000000.0000000.0000000.0000000.0000000.00000060.0000000.0000000.0000000.0000000.0000002.0794420.00000070.0000000.0000000.0000000.0000000.0000000.0000002.079442[8rowsx70columns]</text>
  <path d="M0 0V290.909" fill="none" stroke="#e0e0e0" stroke-linecap="butt" stroke-linejoin="miter" stroke-width=".398" transform="matrix(1,0,0,-1,68.812,375.418)"/>
  <path d="M0 0V290.909" fill="none" stroke="#e0e0e0" stroke-linecap="butt" stroke-linejoin="miter" stroke-width=".398" transform="matrix(1,0,0,-1,543.188,375.418)"/>
  <path d="M0 0H474.775" fill="none" stroke="#e0e0e0" stroke-linecap="butt" stroke-linejoin="miter" stroke-width=".398" transform="matrix(1,0,0,-1,68.613,84.31)"/>
  <path d="M0 0H474.775" fill="none" stroke="#e0e0e0" stroke-linecap="butt" stroke-linejoin="miter" stroke-width=".398" transform="matrix(1,0,0,-1,68.613,375.617)"/>
  <text transform="matrix(1 0 -0 1 0 792)" x="0" y="0">Note:</text>
  <text transform="matrix(1 0 -0 1 0 792)" x="0" y="0">Theinversedocumentfrequencyisoftendeﬁnedusingasmoothingfactors,e.g.,as</text>
  <text transform="matrix(1 0 -0 1 0 792)" x="0" y="0">𝐼𝐷𝐹</text>
  <text transform="matrix(1 0 -0 1 0 792)" x="0" y="0">𝑡</text>
  <text transform="matrix(1 0 -0 1 0 792)" x="0" y="0">=log</text>
  <text transform="matrix(1 0 -0 1 0 792)" x="0" y="0">𝑁</text>
  <path d="M0 0H19.907" fill="none" stroke="#000000" stroke-linecap="butt" stroke-linejoin="miter" stroke-width=".398" transform="matrix(1,0,0,-1,483.752,409.191)"/>
  <text transform="matrix(1 0 -0 1 0 792)" x="0" y="0">𝐷</text>
  <text transform="matrix(1 0 -0 1 0 792)" x="0" y="0">𝑡</text>
  <text transform="matrix(1 0 -0 1 0 792)" x="0" y="0">+1</text>
  <text transform="matrix(1 0 -0 1 0 792)" x="0" y="0">toavoidpotentiallyundeﬁnedvaluesincaseaworddoesnotappearinacorpus.Pleasenotethattherearedifferentvariantsofsmoothing.However,theimpactontheresultsofthedifferentvariantsofsmoothingisusuallyverysmall,exceptthatthecomputationshaveabetternumericalstability.</text>
  <text fill="#20435c" transform="matrix(1 0 -0 1 0 792)" x="0" y="0">10.2.9</text>
  <text fill="#20435c" transform="matrix(1 0 -0 1 0 792)" x="0" y="0">BeyondtheBag-of-Words</text>
  <text transform="matrix(1 0 -0 1 0 792)" x="0" y="0">Whilethebag-of-wordsisagoodtechniquethatscaleswell,therearealsosomeseverelimitations.Onesuchlimi-tationsarethatthebag-of-wordsdoesnotaccountforthestructureofdocuments,i.e.,grammarandthecontextarecompletelyignored.Anotheroneisthatthesimilaritybetweenwordsisignored.Forexample,itmakessensethat</text>
  <text transform="matrix(1 0 -0 1 0 792)" x="0" y="0">dollar</text>
  <text transform="matrix(1 0 -0 1 0 792)" x="0" y="0">and</text>
  <text transform="matrix(1 0 -0 1 0 792)" x="0" y="0">euro</text>
  <text transform="matrix(1 0 -0 1 0 792)" x="0" y="0">aretwoseparatetermsinthebag-of-words.However,thewordsaresimilartoeachother,becausebotharecurrencies,whichmayberelevantforthetextmining.Therearealsomorecomplextechniquesthatcanbeused.Asimpleextensionofthebag-of-wordsthataccountsatleasttosomedegreeforthecontextandstructureistouse</text>
  <text transform="matrix(1 0 -0 1 0 792)" x="0" y="0">𝑛</text>
  <text transform="matrix(1 0 -0 1 0 792)" x="0" y="0">-gramsinsteadofwords.A</text>
  <text transform="matrix(1 0 -0 1 0 792)" x="0" y="0">𝑛</text>
  <text transform="matrix(1 0 -0 1 0 792)" x="0" y="0">-gramconsistsofsubsequencesof</text>
  <text transform="matrix(1 0 -0 1 0 792)" x="0" y="0">𝑛</text>
  <text transform="matrix(1 0 -0 1 0 792)" x="0" y="0">words.Thus,wedonotcounthowoftenwordsoccuranymore,butratherhowoftensequencesofwordsoccur.Thedrawbacksof</text>
  <text transform="matrix(1 0 -0 1 0 792)" x="0" y="0">𝑛</text>
  <text transform="matrix(1 0 -0 1 0 792)" x="0" y="0">-gramsisthatthechancethatitisunlikelythat</text>
  <text transform="matrix(1 0 -0 1 0 792)" x="0" y="0">𝑛</text>
  <text transform="matrix(1 0 -0 1 0 792)" x="0" y="0">-gramsforlargervaluesof</text>
  <text transform="matrix(1 0 -0 1 0 792)" x="0" y="0">𝑛</text>
  <text transform="matrix(1 0 -0 1 0 792)" x="0" y="0">occurmorethanonce,becausethiswouldrequiretheexactsamewording.Thus,</text>
  <text transform="matrix(1 0 -0 1 0 792)" x="0" y="0">𝑛</text>
  <text transform="matrix(1 0 -0 1 0 792)" x="0" y="0">-gramsmaybeneedlesslyspeciﬁcand,therefore,hindergeneralization.Moreover,thenumberof</text>
  <text transform="matrix(1 0 -0 1 0 792)" x="0" y="0">𝑛</text>
  <text transform="matrix(1 0 -0 1 0 792)" x="0" y="0">-gramsgrowthsexponentiallywith</text>
  <text transform="matrix(1 0 -0 1 0 792)" x="0" y="0">𝑛</text>
  <text transform="matrix(1 0 -0 1 0 792)" x="0" y="0">.Thus,thisapproachonlyworkstocapturethedirectcontextofaword.Arecentapproachistouse</text>
  <text transform="matrix(1 0 -0 1 0 792)" x="0" y="0">wordembeddings</text>
  <text transform="matrix(1 0 -0 1 0 792)" x="0" y="0">insteadofthebag-of-words.Wordembeddingstransformwordsintoahighdimensionalspace(e.g.,the</text>
  <text transform="matrix(1 0 -0 1 0 792)" x="0" y="0">R</text>
  <text transform="matrix(1 0 -0 1 0 792)" x="0" y="0">𝑑</text>
  <text transform="matrix(1 0 -0 1 0 792)" x="0" y="0">)suchthatsimilarwordsareclosetoeachotherintheembeddedspace.State-of-the-artwordembeddingslikeBERTcanalsotakethecontextofwordsintoaccountand,thereby,furtherimprovethesimilarity.Thewordembeddingsthemselvesarelearnedthroughdeepneuralnetworkswitha</text>
  <text transform="matrix(1 0 -0 1 0 792)" x="0" y="0">transformer</text>
  <text transform="matrix(1 0 -0 1 0 792)" x="0" y="0">architectureusinghugeamountsoftextualdata.</text>
  <path d="M0 0H468" fill="none" stroke="#000000" stroke-linecap="butt" stroke-linejoin="miter" stroke-width=".398" transform="matrix(1,0,0,-1,72,737.73306)"/>
  <text transform="matrix(1 0 -0 1 0 792)" x="0" y="0">10.2.Preprocessing155</text>
</svg>
