<?xml version="1.0" encoding="utf-8" ?>
<svg xmlns="http://www.w3.org/2000/svg" xmlns:ev="http://www.w3.org/2001/xml-events" xmlns:xlink="http://www.w3.org/1999/xlink" baseProfile="full" height="792" version="1.1" viewBox="0 0 612 792" width="612">
  <defs/>
  <g>
    <text transform="matrix(1 0 -0 1 0 792)" x="0" y="0">IntroductiontoDataScience,Release0.1</text>
    <path d="M0 0H468" fill="none" stroke="#000000" stroke-linecap="butt" stroke-linejoin="miter" stroke-width=".398" transform="matrix(1,0,0,-1,72,47.29303)"/>
    <text fill="#20435c" transform="matrix(1 0 -0 1 0 792)" x="0" y="0">8.1.1</text>
    <text fill="#20435c" transform="matrix(1 0 -0 1 0 792)" x="0" y="0">TheFormalProblem</text>
    <text transform="matrix(1 0 -0 1 0 792)" x="0" y="0">Formally,wehaveasetofobjects</text>
    <text transform="matrix(1 0 -0 1 0 792)" x="0" y="0">𝑂</text>
    <text transform="matrix(1 0 -0 1 0 792)" x="0" y="0">=</text>
    <text transform="matrix(1 0 -0 1 0 792)" x="0" y="0">{</text>
    <text transform="matrix(1 0 -0 1 0 792)" x="0" y="0">𝑜𝑏𝑗𝑒𝑐𝑡</text>
    <text transform="matrix(1 0 -0 1 0 792)" x="0" y="0">1</text>
    <text transform="matrix(1 0 -0 1 0 792)" x="0" y="0">,𝑜𝑏𝑗𝑒𝑐𝑡</text>
    <text transform="matrix(1 0 -0 1 0 792)" x="0" y="0">2</text>
    <text transform="matrix(1 0 -0 1 0 792)" x="0" y="0">,...</text>
    <text transform="matrix(1 0 -0 1 0 792)" x="0" y="0">}</text>
    <text transform="matrix(1 0 -0 1 0 792)" x="0" y="0">thatmaybeinﬁnite.Moreover,wehaverepresentationsoftheseobjectsinafeaturespace</text>
    <text transform="matrix(1 0 -0 1 0 792)" x="0" y="0">ℱ{</text>
    <text transform="matrix(1 0 -0 1 0 792)" x="0" y="0">𝜑</text>
    <text transform="matrix(1 0 -0 1 0 792)" x="0" y="0">(</text>
    <text transform="matrix(1 0 -0 1 0 792)" x="0" y="0">𝑜</text>
    <text transform="matrix(1 0 -0 1 0 792)" x="0" y="0">):</text>
    <text transform="matrix(1 0 -0 1 0 792)" x="0" y="0">𝑜</text>
    <text transform="matrix(1 0 -0 1 0 792)" x="0" y="0">∈</text>
    <text transform="matrix(1 0 -0 1 0 792)" x="0" y="0">𝑂</text>
    <text transform="matrix(1 0 -0 1 0 792)" x="0" y="0">}</text>
    <text transform="matrix(1 0 -0 1 0 792)" x="0" y="0">thatweassumeisasubsetoftherealvalues,i.e.,</text>
    <text transform="matrix(1 0 -0 1 0 792)" x="0" y="0">ℱ⊆</text>
    <text transform="matrix(1 0 -0 1 0 792)" x="0" y="0">R</text>
    <text transform="matrix(1 0 -0 1 0 792)" x="0" y="0">𝑚</text>
    <text transform="matrix(1 0 -0 1 0 792)" x="0" y="0">.Foreachobject,ourvalueofinterestisadependentvariable</text>
    <text transform="matrix(1 0 -0 1 0 792)" x="0" y="0">𝑓</text>
    <text transform="matrix(1 0 -0 1 0 792)" x="0" y="0">*</text>
    <text transform="matrix(1 0 -0 1 0 792)" x="0" y="0">(</text>
    <text transform="matrix(1 0 -0 1 0 792)" x="0" y="0">𝑜</text>
    <text transform="matrix(1 0 -0 1 0 792)" x="0" y="0">)=</text>
    <text transform="matrix(1 0 -0 1 0 792)" x="0" y="0">𝑦</text>
    <text transform="matrix(1 0 -0 1 0 792)" x="0" y="0">∈</text>
    <text transform="matrix(1 0 -0 1 0 792)" x="0" y="0">R</text>
    <text transform="matrix(1 0 -0 1 0 792)" x="0" y="0">.Thetaskofregressionistoestimatearegressionfunction</text>
    <text transform="matrix(1 0 -0 1 0 792)" x="0" y="0">𝑓</text>
    <text transform="matrix(1 0 -0 1 0 792)" x="0" y="0">:</text>
    <text transform="matrix(1 0 -0 1 0 792)" x="0" y="0">ℱ→</text>
    <text transform="matrix(1 0 -0 1 0 792)" x="0" y="0">R</text>
    <text transform="matrix(1 0 -0 1 0 792)" x="0" y="0">suchthat</text>
    <text transform="matrix(1 0 -0 1 0 792)" x="0" y="0">𝑓</text>
    <text transform="matrix(1 0 -0 1 0 792)" x="0" y="0">(</text>
    <text transform="matrix(1 0 -0 1 0 792)" x="0" y="0">𝜑</text>
    <text transform="matrix(1 0 -0 1 0 792)" x="0" y="0">(</text>
    <text transform="matrix(1 0 -0 1 0 792)" x="0" y="0">𝑜</text>
    <text transform="matrix(1 0 -0 1 0 792)" x="0" y="0">))</text>
    <text transform="matrix(1 0 -0 1 0 792)" x="0" y="0">≈</text>
    <text transform="matrix(1 0 -0 1 0 792)" x="0" y="0">𝑓</text>
    <text transform="matrix(1 0 -0 1 0 792)" x="0" y="0">*</text>
    <text transform="matrix(1 0 -0 1 0 792)" x="0" y="0">(</text>
    <text transform="matrix(1 0 -0 1 0 792)" x="0" y="0">𝑜</text>
    <text transform="matrix(1 0 -0 1 0 792)" x="0" y="0">)</text>
    <text transform="matrix(1 0 -0 1 0 792)" x="0" y="0">.</text>
    <text fill="#20435c" transform="matrix(1 0 -0 1 0 792)" x="0" y="0">8.2</text>
    <text fill="#20435c" transform="matrix(1 0 -0 1 0 792)" x="0" y="0">PerformanceofRegressions</text>
    <text transform="matrix(1 0 -0 1 0 792)" x="0" y="0">Sameaswithclassiﬁcation,animportantquestionishowwecanestimateifaregressionfunctionisagoodapproxi-mationofthedependentvariable.WediscusstheperformanceofLinearRegressionusingthetwoexamplesbelow.</text>
    <path d="M0 0H473.978V333.581H0Z" fill="#ffffff" transform="matrix(1,0,0,-1,69.011,567.975)"/>
    <g>
      <g transform="matrix(.65001,0,0,.65001007,72,237.38092)"/>
    </g>
    <path d="M0 0V333.581" fill="none" stroke="#e0e0e0" stroke-linecap="butt" stroke-linejoin="miter" stroke-width=".398" transform="matrix(1,0,0,-1,68.812,567.975)"/>
    <path d="M0 0V333.581" fill="none" stroke="#e0e0e0" stroke-linecap="butt" stroke-linejoin="miter" stroke-width=".398" transform="matrix(1,0,0,-1,543.188,567.975)"/>
    <path d="M0 0H474.775" fill="none" stroke="#e0e0e0" stroke-linecap="butt" stroke-linejoin="miter" stroke-width=".398" transform="matrix(1,0,0,-1,68.613,234.19498)"/>
    <path d="M0 0H474.775" fill="none" stroke="#e0e0e0" stroke-linecap="butt" stroke-linejoin="miter" stroke-width=".398" transform="matrix(1,0,0,-1,68.613,568.17398)"/>
    <text transform="matrix(1 0 -0 1 0 792)" x="0" y="0">Theﬁrstexampleshowsaverygoodregressionmodel,wheretheregressionfunctiondepictedinbluematchesthedata.Thisisexpected,becausewegeneratedthedatawithalinearexpressionandusealinearexpressionmodel.Thesecondexampleshowsabadregressionmodel,becausetheregressiondoesnotreallymatchthedata.Thisisexpected,becauseweﬁtalinearmodeltoexponentialdata.Inthefollowing,werefertotheﬁrstexampleasthegoodresult,andthesecondexampleasthebadresult.Intermsofregression,good/badresultsarealsocalledagood/bad</text>
    <text transform="matrix(1 0 -0 1 0 792)" x="0" y="0">ﬁt</text>
    <text transform="matrix(1 0 -0 1 0 792)" x="0" y="0">ofthedata</text>
    <path d="M0 0H468" fill="none" stroke="#000000" stroke-linecap="butt" stroke-linejoin="miter" stroke-width=".398" transform="matrix(1,0,0,-1,72,737.73306)"/>
    <text transform="matrix(1 0 -0 1 0 792)" x="0" y="0">126Chapter8.Regression</text>
  </g>
</svg>
