<?xml version="1.0" encoding="utf-8" ?>
<svg xmlns="http://www.w3.org/2000/svg" xmlns:ev="http://www.w3.org/2001/xml-events" xmlns:xlink="http://www.w3.org/1999/xlink" baseProfile="full" height="792" version="1.1" viewBox="0 0 612 792" width="612">
  <defs/>
  <g>
    <text transform="matrix(1 0 -0 1 0 792)" x="0" y="0">IntroductiontoDataScience,Release0.1</text>
    <path d="M0 0H468" fill="none" stroke="#000000" stroke-linecap="butt" stroke-linejoin="miter" stroke-width=".398" transform="matrix(1,0,0,-1,72,47.29303)"/>
    <path d="M0 0H473.978V202.485H0Z" fill="#ffffff" transform="matrix(1,0,0,-1,69.011,278.86903)"/>
    <g>
      <g transform="matrix(.74998,0,0,.75003,72,79.37215)"/>
    </g>
    <path d="M0 0V202.485" fill="none" stroke="#e0e0e0" stroke-linecap="butt" stroke-linejoin="miter" stroke-width=".398" transform="matrix(1,0,0,-1,68.812,278.86903)"/>
    <path d="M0 0V202.485" fill="none" stroke="#e0e0e0" stroke-linecap="butt" stroke-linejoin="miter" stroke-width=".398" transform="matrix(1,0,0,-1,543.188,278.86903)"/>
    <path d="M0 0H474.775" fill="none" stroke="#e0e0e0" stroke-linecap="butt" stroke-linejoin="miter" stroke-width=".398" transform="matrix(1,0,0,-1,68.613,76.184009)"/>
    <path d="M0 0H474.775" fill="none" stroke="#e0e0e0" stroke-linecap="butt" stroke-linejoin="miter" stroke-width=".398" transform="matrix(1,0,0,-1,68.613,279.068)"/>
    <text transform="matrix(1 0 -0 1 0 792)" x="0" y="0">Therugshowswheredatapointsarelocated.Incombinationwiththedensityplot,wecannowseethatthereisnodatalessthan5andgreaterthan50,eventhoughthedensityplotindicatesthis.Wealsoseethatthedatabetween38and50isrelativelysparseandtheruglooksalmostuniform,whichmatchesthatthedensityplotalmostlookslikealineinthatregion-withtheexceptionofthebumpat50.Thus,theruggivesusmoreinformationandwecanavoidmisinterpretationsofthedensityplots.Anothereffectivewaytolookatasinglefeatureisjusttocombinetheapproachesabove:visualizethehistogram,thedensityplot,andtherugtogether.</text>
    <path d="M0 0H473.978V202.485H0Z" fill="#ffffff" transform="matrix(1,0,0,-1,69.011,583.77)"/>
    <g>
      <g transform="matrix(.74998,0,0,.75003,72,384.27314)"/>
    </g>
    <path d="M0 0V202.485" fill="none" stroke="#e0e0e0" stroke-linecap="butt" stroke-linejoin="miter" stroke-width=".398" transform="matrix(1,0,0,-1,68.812,583.77)"/>
    <path d="M0 0V202.485" fill="none" stroke="#e0e0e0" stroke-linecap="butt" stroke-linejoin="miter" stroke-width=".398" transform="matrix(1,0,0,-1,543.188,583.77)"/>
    <path d="M0 0H474.775" fill="none" stroke="#e0e0e0" stroke-linecap="butt" stroke-linejoin="miter" stroke-width=".398" transform="matrix(1,0,0,-1,68.613,381.08503)"/>
    <path d="M0 0H474.775" fill="none" stroke="#e0e0e0" stroke-linecap="butt" stroke-linejoin="miter" stroke-width=".398" transform="matrix(1,0,0,-1,68.613,583.969)"/>
    <text transform="matrix(1 0 -0 1 0 792)" x="0" y="0">Withthatplot,wecanseewherethedataislocatedandhowmuchdatawehaveineachbin,wegetanicevisualizationoftheprobabilitydensityfunction,andweseetheactuallocationofthedataintherug.Thus,wehavealladvantagesofboththehistogramandthedensityplot.Theonly(minor)drawbackisthatthehistogramisabitdifferentthantheoneabove:itshowsusthefrequencyasthepercentageoftheoveralldatathatfallswithininabin.Thereasonforthisisthatthisisthesamescaleonthey-axisasforthedensityplot.Thus,welosetheinformationofthecountsofthevalueswithineachbin.Ifthisisrelevant,asimplehistogramshouldbeused.ThefeatureMEDVthatweconsideredaboveisrelatively“well-behaved”,i.e.,mostlynormalwithatailontherightside.Theonlyproblemwiththatfeatureisthegroupingat50,whichcanleadtoproblemswithcertainmodelingapproaches.NowwetakeacloserlookatanotherfeaturefromtheBostonhousingdata:CRIM,whichisdeﬁnedasthepercapitacrimeratebytown.</text>
    <path d="M0 0H468" fill="none" stroke="#000000" stroke-linecap="butt" stroke-linejoin="miter" stroke-width=".398" transform="matrix(1,0,0,-1,72,737.73306)"/>
    <text transform="matrix(1 0 -0 1 0 792)" x="0" y="0">3.3.VisualizationforDataExploration35</text>
  </g>
</svg>
