<?xml version="1.0" encoding="utf-8" ?>
<svg xmlns="http://www.w3.org/2000/svg" xmlns:ev="http://www.w3.org/2001/xml-events" xmlns:xlink="http://www.w3.org/1999/xlink" baseProfile="full" height="792" version="1.1" viewBox="0 0 612 792" width="612">
  <defs/>
  <text transform="matrix(1 0 -0 1 0 792)" x="0" y="0">IntroductiontoDataScience,Release0.1</text>
  <path d="M0 0H468" fill="none" stroke="#000000" stroke-linecap="butt" stroke-linejoin="miter" stroke-width=".398" transform="matrix(1,0,0,-1,72,47.29303)"/>
  <text transform="matrix(1 0 -0 1 0 792)" x="0" y="0">getsthepointsontheleftsideandsomefromthecenter(yellow).Atthebottom-middle,wehavetwoclustersclosetoeachotherwhichsplitthepointsatthebottom(purpleandgreen).Purplealsogetsomepointsinfromthemiddle.</text>
  <text transform="matrix(1 0 -0 1 0 792)" x="0" y="0">•</text>
  <text transform="matrix(1 0 -0 1 0 792)" x="0" y="0">Iteration2:Weupdatetheclustercentersandtheyaremovedtothelocationofthearithmeticmeanoftheclusterassignmentsiniteration1.Thismeansthatthetealcentermovestothetop-rightcorner,becausemostpointsassignedtotheclusterarefromthatarea,onlysomepointsarefromthemiddle.Thetealcenterisstillnotlocatedinthemiddleofthetop-rightcluster,becauseoftheinﬂuenceofthepointsfromthemiddleontheupdateofthelocation.However,duetothisupdate,nopointsfromthemiddleareassignedtothetealclusteranymore.Theinteractionbetweenyellow,purple,andgreenisquiteinteresting.Theyellowcentermovesslightlytotheright,becausemanypointsfromthemiddlewereassigned.Thepurpleclustermovesabittothetop,becauseofthepointsfromthemiddle.Thegreencenterstaysalmostwhereitwas.However,whileyellowandpurplebothmovedtowardsthemiddle,yellowactuallyhasfewerpointsassigned,becausethemoveofpurpletowardsthemiddlewaslarger.Moreover,whilegreendidnotchange,mostofthebottomclusterisnowgreen,becausepurplemovedtothecenter.</text>
  <text transform="matrix(1 0 -0 1 0 792)" x="0" y="0">•</text>
  <text transform="matrix(1 0 -0 1 0 792)" x="0" y="0">Iteration3:Theresultbeginstoconverge.Tealisnowinthecenterofthetop-rightcluster.Yellowstartstomovetowardstheleftside,becausepurpledominatestheinstancesinthemiddle.Asaconsequence,greengainsfullcontroloverthebottomcluster.</text>
  <text transform="matrix(1 0 -0 1 0 792)" x="0" y="0">•</text>
  <text transform="matrix(1 0 -0 1 0 792)" x="0" y="0">Iteration4:Afteronlyfourupdatecycles,wehavealmosttheﬁnalresultwehaveshownabove.Teal,purple,andgreendonotmovealotanymore.Yellowisstillmovingtotheleft,buthasnowalsoalmostreachedtheﬁnaldestination.</text>
  <text fill="#20435c" transform="matrix(1 0 -0 1 0 792)" x="0" y="0">6.2.3</text>
  <text fill="#20435c" transform="matrix(1 0 -0 1 0 792)" x="0" y="0">Selecting</text>
  <text fill="#20435c" transform="matrix(1 0 -0 1 0 792)" x="0" y="0">𝑘</text>
  <text transform="matrix(1 0 -0 1 0 792)" x="0" y="0">Intheexampleabove,wealwaysused</text>
  <text transform="matrix(1 0 -0 1 0 792)" x="0" y="0">𝑘</text>
  <text transform="matrix(1 0 -0 1 0 792)" x="0" y="0">=4</text>
  <text transform="matrix(1 0 -0 1 0 792)" x="0" y="0">,i.e.,fourclusters.Thisisanimporantaspectofthe</text>
  <text transform="matrix(1 0 -0 1 0 792)" x="0" y="0">𝑘</text>
  <text transform="matrix(1 0 -0 1 0 792)" x="0" y="0">-Meansalgorithm:howtopickasuitablevaluefor</text>
  <text transform="matrix(1 0 -0 1 0 792)" x="0" y="0">𝑘</text>
  <text transform="matrix(1 0 -0 1 0 792)" x="0" y="0">?Beforeweexplorethisingreaterdetail,letuslookathowtheresultwithdifferentvaluesfor</text>
  <text transform="matrix(1 0 -0 1 0 792)" x="0" y="0">𝑘</text>
  <text transform="matrix(1 0 -0 1 0 792)" x="0" y="0">foroursampledata.</text>
  <path d="M0 0H468" fill="none" stroke="#000000" stroke-linecap="butt" stroke-linejoin="miter" stroke-width=".398" transform="matrix(1,0,0,-1,72,737.73306)"/>
  <text transform="matrix(1 0 -0 1 0 792)" x="0" y="0">68Chapter6.Clustering</text>
</svg>
